<svg width="45" height="43" viewBox="0 0 45 43" fill="none" xmlns="http://www.w3.org/2000/svg">
<path d="M12.159 7.09315C13.2336 7.09315 14.1868 7.70596 14.8589 8.69473C15.4731 9.60062 15.855 10.8351 15.855 12.1836C15.855 13.532 15.4746 14.768 14.8589 15.6724C14.1868 16.6612 13.2336 17.274 12.159 17.274C11.0843 17.274 10.1311 16.6612 9.45906 15.6724C8.84478 14.7665 8.46288 13.532 8.46288 12.1836C8.46288 10.8351 8.8433 9.59914 9.45906 8.69473C10.1311 7.70596 11.0843 7.09315 12.159 7.09315ZM13.6392 9.52069C13.241 8.93601 12.717 8.57336 12.159 8.57336C11.6009 8.57336 11.0769 8.93601 10.6788 9.52069C10.2258 10.1883 9.94457 11.1297 9.94457 12.1836C9.94457 13.2375 10.2258 14.1789 10.6788 14.8465C11.0769 15.4312 11.6009 15.7938 12.159 15.7938C12.717 15.7938 13.241 15.4312 13.6392 14.8465C14.0921 14.1789 14.3733 13.2375 14.3733 12.1836C14.3733 11.1297 14.0921 10.1883 13.6392 9.52069ZM23.2117 19.0236C24.2863 19.0236 25.2395 19.6364 25.9116 20.6252C26.5258 21.5311 26.9077 22.7656 26.9077 24.114C26.9077 25.4625 26.5273 26.6985 25.9116 27.6029C25.2395 28.5917 24.2863 29.2045 23.2117 29.2045C22.137 29.2045 21.1838 28.5917 20.5118 27.6029C19.8975 26.697 19.5156 25.4625 19.5156 24.114C19.5156 22.7656 19.896 21.5296 20.5118 20.6252C21.1838 19.6364 22.137 19.0236 23.2117 19.0236ZM24.6919 21.4512C24.2937 20.8665 23.7697 20.5038 23.2117 20.5038C22.6536 20.5038 22.1296 20.8665 21.7315 21.4512C21.2785 22.1187 20.9973 23.0601 20.9973 24.114C20.9973 25.168 21.2785 26.1094 21.7315 26.7769C22.1296 27.3616 22.6536 27.7243 23.2117 27.7243C23.7697 27.7243 24.2937 27.3616 24.6919 26.7769C25.1448 26.1094 25.426 25.168 25.426 24.114C25.426 23.0601 25.1448 22.1187 24.6919 21.4512ZM23.9118 8.89604C24.1605 8.57336 24.6238 8.51415 24.9465 8.76282C25.2691 9.0115 25.3284 9.4748 25.0797 9.79749L11.4588 27.4016C11.2101 27.7243 10.7468 27.7835 10.4242 27.5348C10.1015 27.2861 10.0423 26.8228 10.2909 26.5001L23.9118 8.89604ZM36.4477 0.00148024H4.49889C3.47015 0.00148024 2.53614 0.421859 1.84044 1.11756C1.16546 1.80881 0.759888 2.73098 0.759888 3.74344V43L17.3915 35.7544C17.5869 35.67 17.8 35.6759 17.9806 35.7544L34.6122 43V27.3202V4.1505L34.6137 4.01876C34.6566 2.50747 35.2813 1.16048 36.2656 0.176145C36.3263 0.115456 36.387 0.0577281 36.4491 0L36.4477 0.00148024ZM36.0909 4.1505V26.5608H44.3905V4.1505C44.3905 3.02702 43.9375 2.0042 43.19 1.23893C42.4203 0.469226 41.3827 0.00296048 40.2429 0.00296048C39.1002 0.00296048 38.0611 0.469225 37.3106 1.22117C36.5602 1.97164 36.0924 3.01074 36.0924 4.15198L36.0909 4.1505Z" fill="#7E7E7E"/>
</svg>
