<svg width="141" height="81" viewBox="0 0 141 81" fill="none" xmlns="http://www.w3.org/2000/svg">
    <path d="M11.2979 76.3789C11.6162 77.2787 11.961 77.8946 12.3336 78.1739C14.7756 80.0078 16.9608 80.5474 18.9269 80.1063C18.9275 80.1051 18.9281 80.1034 18.9287 80.1022C21.1304 79.6222 23.0587 77.9129 24.7651 75.4065C26.8782 72.3032 29.5759 68.5528 32.3144 66.2885C33.7775 65.1117 35.4053 64.3093 36.5861 64.2586C39.595 64.1292 40.8715 64.9257 41.5428 65.4778C41.7666 65.6614 41.9237 65.8185 42.0548 65.9047C42.4486 66.1633 42.8158 66.1792 42.9747 66.171C43.0278 66.168 43.0573 66.1633 43.0573 66.1633V66.1621C43.0573 66.1621 44.3775 66.1249 45.2095 63.7584C45.2136 63.7472 45.2177 63.7354 45.2212 63.7236C45.2501 63.6398 45.2785 63.553 45.3063 63.4632C45.3116 63.4461 45.3169 63.4289 45.3222 63.4118C45.3499 63.3191 45.3777 63.2229 45.4043 63.1237C45.4072 63.1119 45.4108 63.1007 45.4137 63.0883C45.4438 62.9749 45.4727 62.858 45.5005 62.7364C46.2651 59.3556 66.2312 56.2883 74.8657 55.3926C83.4996 54.4969 97.9799 54.2732 97.9799 54.2732C97.9799 54.2732 98.6094 54.2731 98.9016 54.6534C99.1939 55.0342 99.3963 55.3253 99.3963 55.3253V55.3235V55.1966C99.3963 55.7085 99.5263 56.1903 99.756 56.6107C99.8936 56.8628 100.067 57.093 100.269 57.2944C100.581 57.6055 100.964 57.8446 101.39 57.9934C101.699 58.1015 102.03 58.1635 102.376 58.1635C102.685 58.1635 102.982 58.1168 103.262 58.03C103.728 57.8854 104.146 57.6297 104.482 57.2944C104.684 57.093 104.858 56.8628 104.996 56.6107C105.016 56.5729 105.033 56.5333 105.052 56.4949L107.716 57.1621V58.725C107.716 60.8907 109.479 62.6466 111.654 62.6466H112.705C113.844 62.6466 114.867 62.1625 115.585 61.3926V61.4191L129.364 64.9942L138.55 67.3772C138.607 67.0973 138.663 66.8092 138.718 66.514C138.884 65.6277 139.041 64.6736 139.189 63.6587C139.238 63.3204 139.286 62.9749 139.333 62.6236C139.474 61.5685 139.605 60.4544 139.726 59.2877L139.801 56.4117L137.584 55.9789C137.721 54.4939 137.847 52.8153 137.951 50.9389L140.336 51.2306C140.511 47.835 140.607 44.1951 140.607 40.408C140.607 32.8109 140.225 25.8043 139.58 20.1798L137.812 20.534C137.782 19.9135 137.753 19.349 137.725 18.8312L138.891 18.5278V15.2662C138.779 14.6108 138.663 13.9867 138.541 13.3975L122.346 18.1044L122.039 18.1694V18.1936L116.001 19.9484C115.298 18.8779 114.085 18.1694 112.705 18.1694H111.654C111.48 18.1694 111.31 18.1847 111.142 18.2065C111.142 18.1941 111.143 18.1794 111.144 18.1676C109.211 18.4174 107.716 20.0593 107.716 22.0526V22.0916V23.6551L106.024 24.0784L105.052 24.3217C104.568 23.3345 103.554 22.6531 102.376 22.6531C101.148 22.6531 100.094 23.3935 99.6385 24.4498C99.6373 24.4533 99.6349 24.4563 99.6338 24.4599C99.5995 24.5396 99.5705 24.621 99.5434 24.7043C99.5398 24.7143 99.5357 24.7238 99.5321 24.7338C99.5085 24.8094 99.4896 24.8873 99.4719 24.9652C99.4678 24.9835 99.4619 25.0013 99.4578 25.0196C99.4424 25.0952 99.4317 25.1725 99.4223 25.2499C99.4193 25.2717 99.4147 25.2929 99.4123 25.3154C99.4023 25.4152 99.3969 25.5167 99.3969 25.6195V25.4907C99.3969 25.4907 99.1945 25.7818 98.9022 26.1626C98.6099 26.5434 97.9805 26.5434 97.9805 26.5434C97.9805 26.5434 83.5002 26.3197 74.8663 25.424C66.2324 24.5283 46.2657 21.461 45.5011 18.0802C44.7365 14.6994 43.0579 14.6545 43.0579 14.6545C43.0579 14.6545 42.5803 14.5683 42.0548 14.9131C42.0329 14.9273 42.0105 14.9432 41.988 14.9592C41.57 15.2585 40.9253 15.895 38.8328 16.0969C38.2471 16.1501 37.5492 16.1678 36.7096 16.1318C32.6976 15.9594 27.9888 9.72734 24.7651 4.99266C22.2369 1.28002 19.2239 -0.68432 15.5538 0.507763C14.5323 0.833682 13.4601 1.40463 12.333 2.25131C11.9616 2.53 11.618 3.14284 11.2997 4.03912C10.9585 1.74351 9.29226 0 7.28361 0H2.05354C2.05354 0 0.474129 0.00291225 0.0856242 27.1185C0.0838529 27.2248 0.0826969 27.3352 0.081516 27.4421C0.0767926 27.7993 0.0714504 28.1577 0.0673174 28.525C0.0655461 28.6726 0.0637552 28.8255 0.0619839 28.9743C0.0578509 29.3232 0.0537201 29.6716 0.0495871 30.0294C0.0478158 30.1965 0.0466736 30.3694 0.0449023 30.5383C0.0413597 30.8849 0.0384265 31.2303 0.034884 31.584C0.0331127 31.7682 0.0318845 31.9583 0.0307036 32.1449C0.0277515 32.4956 0.0247768 32.8451 0.0224151 33.2035C0.0212342 33.4173 0.0200643 33.6387 0.0188835 33.8554C0.0171122 34.186 0.0147447 34.5143 0.0129734 34.8515C0.0112021 35.1638 0.010046 35.485 0.00886514 35.8026C0.00768427 36.0624 0.00650052 36.3175 0.00591009 36.5814C0.00472923 36.8896 0.00412207 37.2073 0.00353164 37.5202C0.00294121 37.8024 0.0018157 38.0805 0.00122526 38.3669C4.43977e-05 38.9662 0 39.5755 0 40.1937C0 40.196 0 40.1978 0 40.2002C0 51.5353 0.163534 59.6738 0.397346 65.5179C0.422144 66.1367 0.448126 66.7295 0.474105 67.2981C0.531377 68.5374 0.592209 69.6586 0.654795 70.6742C0.681955 71.1164 0.7097 71.5398 0.738041 71.943C0.802398 72.8677 0.868531 73.6907 0.934659 74.424C0.979532 74.9182 1.02442 75.371 1.06929 75.7867C1.07284 75.8174 1.07577 75.8475 1.07931 75.8776C1.57469 80.401 2.05354 80.4004 2.05354 80.4004H7.28361C9.28695 80.3986 10.9496 78.6651 11.2979 76.3789Z" fill="#3C1A52" fill-opacity="0.15"/>
    </svg>
    