<svg width="170" height="117" viewBox="0 0 170 117" fill="none" xmlns="http://www.w3.org/2000/svg">
<path d="M116.992 58.4924C116.992 90.7999 90.7998 116.985 58.4995 116.985C26.1992 116.985 0 90.7928 0 58.4924C0 26.192 26.192 4.95911e-05 58.4995 4.95911e-05C90.807 4.95911e-05 116.992 26.192 116.992 58.4924Z" fill="white"/>
<path d="M165.722 58.4709C165.722 56.4108 164.086 54.803 161.99 54.803C159.894 54.803 158.257 56.4395 158.257 58.4709C158.257 60.5022 159.922 62.1387 161.99 62.1387C164.057 62.1387 165.722 60.5596 165.722 58.4709ZM170 44.7037V65.9287H165.722V63.804C164.688 65.3472 163.088 66.2301 160.992 66.2301C157.145 66.2301 154.08 62.7417 154.08 58.4637C154.08 54.1857 157.145 50.7331 160.992 50.7331C163.088 50.7331 164.688 51.6088 165.722 53.1592V44.6965H170V44.7037Z" fill="white"/>
<path d="M150.491 51.0417L148.036 59.1958L145.036 51.0417H141.698L138.726 59.1958L136.243 51.0417H128.003V50.1588C128.003 48.795 129.065 47.8834 130.307 47.8834C130.73 47.8834 131.34 48.0055 131.642 48.0988L131.857 44.3376C131.312 44.0648 130.465 43.8854 129.675 43.8854C126.187 43.8854 123.732 46.0962 123.732 49.9507V51.0417H120.976V55.1044H123.732V65.9286H128.01V55.1044H133.142L137.047 65.9286H140.349L143.378 57.7745L146.378 65.9286H149.744L155.113 51.0417H150.505H150.491Z" fill="white"/>
<path d="M21.7111 58.2334C21.7111 56.2308 20.0715 54.6876 17.9716 54.6876C15.8718 54.6876 14.2322 56.2667 14.2322 58.2334C14.2322 60.2001 15.9005 61.808 17.9716 61.808C20.0427 61.808 21.7111 60.2647 21.7111 58.2334ZM25.9971 51.0484V64.8729C25.9971 69.3878 22.2936 72.0579 17.799 72.0579C15.3396 72.0579 12.3912 71.1822 10.9314 69.6964L13.024 66.7248C14.3616 67.7584 16.03 68.2393 17.7918 68.2393C19.5537 68.2393 21.7111 66.9042 21.7111 64.8729V63.4158C20.6755 64.9303 19.0719 65.7773 16.972 65.7773C13.1175 65.7773 10.0469 62.3822 10.0469 58.2262C10.0469 54.0703 13.1175 50.711 16.972 50.711C19.0647 50.711 20.6755 51.558 21.7111 53.0725V51.0412H25.9971V51.0484Z" fill="#0066BA"/>
<path d="M38.8335 58.4776C38.8335 56.4176 37.1939 54.8098 35.0941 54.8098C32.9942 54.8098 31.3546 56.4463 31.3546 58.4776C31.3546 60.509 33.023 62.1455 35.0941 62.1455C37.1651 62.1455 38.8335 60.5664 38.8335 58.4776ZM43.1123 51.0486V65.9354H38.8263V63.8108C37.7908 65.354 36.1871 66.2369 34.0873 66.2369C30.2328 66.2369 27.1621 62.7484 27.1621 58.4776C27.1621 54.2068 30.2328 50.7471 34.0873 50.7471C36.1799 50.7471 37.7908 51.6228 38.8263 53.1732V51.0486H43.1123Z" fill="#0066BA"/>
<path d="M67.5351 65.9355H63.2491V55.1113H58.3303V65.9355H54.0515V55.1113H49.1615V65.9355H44.8755V51.0487H67.5351V65.9355Z" fill="#0066BA"/>
<path d="M81.0458 58.4779C81.0458 56.4466 79.3774 54.81 77.3063 54.81C75.2353 54.81 73.5669 56.4179 73.5669 58.4779C73.5669 60.538 75.2065 62.1458 77.3063 62.1458C79.4062 62.1458 81.0458 60.538 81.0458 58.4779ZM85.2095 58.4779C85.2095 62.7559 82.1388 66.2372 78.2843 66.2372C76.2205 66.2372 74.6096 65.3902 73.5741 63.8398V65.9285H69.2881V44.7036H73.5741V53.1304C74.6096 51.5872 76.2133 50.733 78.2843 50.733C82.1388 50.733 85.2095 54.1928 85.2095 58.4636" fill="#0066BA"/>
<path d="M90.6683 51.0487H86.3823V65.9355H90.6683V51.0487Z" fill="#0066BA"/>
<path d="M92.4302 46.9858H96.7162V51.0485H100.391V55.1111H96.7162V59.9634C96.7162 61.3559 97.7805 62.2387 99.0245 62.2387C99.4488 62.2387 100.024 62.1454 100.362 62.0306L100.578 65.8205C100.031 66.0932 99.1827 66.244 98.3917 66.244C94.8968 66.244 92.4374 64.0332 92.4374 60.1787V46.993L92.4302 46.9858Z" fill="#0066BA"/>
<path d="M91.1442 46.6844C91.1442 48.1056 89.9576 49.2899 88.5338 49.2899C87.1099 49.2899 85.9233 48.1056 85.9233 46.6844C85.9233 45.2632 87.1099 44.1075 88.5338 44.1075C89.9576 44.1075 91.1442 45.2919 91.1442 46.6844Z" fill="#0066BA"/>
<path d="M107.071 63.6313C107.071 65.0525 105.885 66.2368 104.461 66.2368C103.037 66.2368 101.851 65.0525 101.851 63.6313C101.851 62.2101 103.037 61.0545 104.461 61.0545C105.885 61.0545 107.071 62.2388 107.071 63.6313Z" fill="#0066BA"/>
</svg>
