<svg width="290" height="654" viewBox="0 0 290 654" fill="none" xmlns="http://www.w3.org/2000/svg">
  <path d="M123.738 518.008C123.738 518.008 71.2057 417.939 229.526 329.639C229.526 329.639 250.051 306.094 235.393 297.266H145.754C145.754 297.266 118.113 359.073 85.8638 350.244C85.8638 350.244 24.291 338.468 30.1572 282.549C30.1572 282.549 59.4734 206.026 156.229 153.047C156.229 153.047 148.863 129.502 161.341 116.256C173.82 103.009 240.666 66.1078 240.666 66.1078C240.666 66.1078 247.118 0 261.776 0C276.434 0 305.758 52.9784 308.683 50.038C311.616 47.0976 580.553 29.4333 409.44 518.008H123.731H123.738Z" fill="#CF0F69"/>
  <path d="M496.138 658.299H0V578.813C0 555.26 19.2661 535.994 42.8185 535.994H453.319C476.871 535.994 496.138 555.26 496.138 578.813V658.299Z" fill="#CF0F69"/>
</svg>
