<svg width="497" height="659" viewBox="0 0 497 659" fill="none" xmlns="http://www.w3.org/2000/svg">
  <path d="M248.025 658.291H496.138C495.34 607.705 453.217 563.131 389.23 536.279C388.038 535.775 386.809 535.306 385.602 534.816C387.16 523.34 388.389 511.586 389.23 499.583C390.174 486.388 390.656 472.885 390.656 459.193C390.656 329.932 347.999 220.706 289.417 185.114C321.308 169.373 343.317 136.004 343.317 97.3697C343.317 43.594 300.674 0 248.069 0C195.464 0 152.82 43.594 152.82 97.3697C152.82 135.997 174.822 169.373 206.713 185.106C148.124 220.698 105.481 329.925 105.481 459.193C105.481 472.885 105.964 486.38 106.908 499.583C107.749 511.586 108.97 523.34 110.528 534.824C109.321 535.314 108.1 535.782 106.908 536.287C42.8845 563.109 0.797273 607.712 0 658.299H248.025V658.291Z" fill="#CF0F69"/>
  <path d="M357.412 161.744H138.733C127.458 161.744 118.318 170.884 118.318 182.159V202.222C118.318 213.497 127.458 222.637 138.733 222.637H357.412C368.687 222.637 377.827 213.497 377.827 202.222V182.159C377.827 170.884 368.687 161.744 357.412 161.744Z" fill="#CF0F69"/>
</svg>
